<svg width="24" height="26" viewBox="0 0 24 26" fill="none" xmlns="http://www.w3.org/2000/svg">
<path fill-rule="evenodd" clip-rule="evenodd" d="M24 12.6267C24 19.6003 18.6274 25.2535 12 25.2535C5.37258 25.2535 0 19.6003 0 12.6267C0 5.65318 5.37258 0 12 0C18.6274 0 24 5.65318 24 12.6267ZM8.03576 11.4701C6.83367 12.0223 5.59854 12.5898 4.46913 13.2444L4.46905 13.2445C3.87931 13.6988 4.66319 14.0202 5.39853 14.3216C5.51543 14.3695 5.63111 14.417 5.73985 14.4643C5.83033 14.4936 5.92235 14.5244 6.01559 14.5557C6.83343 14.8299 7.74537 15.1356 8.53935 14.6757C9.84363 13.8873 11.0745 12.9759 12.3044 12.0651C12.7074 11.7667 13.1102 11.4684 13.5155 11.1745C13.5345 11.1617 13.556 11.1471 13.5794 11.1311C13.9247 10.8956 14.7012 10.366 14.414 11.0958C13.7347 11.8774 13.0072 12.5693 12.2757 13.2649C11.7828 13.7337 11.288 14.2043 10.805 14.7051C10.3843 15.0648 9.94747 15.7881 10.4185 16.2917C11.5035 17.0909 12.6054 17.8708 13.7067 18.6501C14.0651 18.9037 14.4233 19.1573 14.7809 19.4114C15.387 19.9206 16.3343 19.5088 16.4675 18.7131C16.5268 18.347 16.5863 17.981 16.6458 17.6149C16.9746 15.5922 17.3035 13.5688 17.594 11.5395C17.6335 11.2212 17.6783 10.9029 17.7231 10.5844C17.8316 9.81255 17.9403 9.03974 17.9742 8.26372C17.8867 7.48931 16.9944 7.65958 16.4977 7.83371C13.9451 8.85574 11.418 9.95353 8.90093 11.0707C8.61579 11.2036 8.32674 11.3364 8.03576 11.4701Z" fill="#BCBCBC"/>
</svg>
