<svg width="24" height="26" viewBox="0 0 24 26" fill="none" xmlns="http://www.w3.org/2000/svg">
<path fill-rule="evenodd" clip-rule="evenodd" d="M12 0C18.6274 0 24 5.65318 24 12.6267C24 19.6003 18.6274 25.2535 12 25.2535C5.37258 25.2535 0 19.6003 0 12.6267C0 5.65318 5.37258 0 12 0ZM15.1971 11.0265C15.1387 10.5276 14.993 10.1358 14.7342 9.78884C14.3981 9.34203 13.9686 9.07447 13.3328 8.91575C12.9184 8.80996 12.751 8.8221 12.6011 8.96615C12.4615 9.1011 12.4343 9.37165 12.541 9.54685C12.616 9.67401 12.7025 9.71957 12.9433 9.76929C13.2638 9.83135 13.4853 9.91189 13.6869 10.0331C14.1146 10.293 14.3137 10.6996 14.3351 11.358C14.345 11.6671 14.3704 11.7621 14.473 11.8718C14.6632 12.0722 15.0017 12.0332 15.1452 11.7934C15.1979 11.703 15.2059 11.6637 15.2115 11.4538C15.2152 11.3238 15.2099 11.1304 15.1971 11.0265ZM15.2027 7.96545C16.2196 8.83071 16.7878 10.0605 16.8723 11.5891C16.9078 12.1911 16.8606 12.3872 16.6587 12.4989C16.4766 12.6024 16.2702 12.5683 16.1286 12.4125C16.0348 12.3112 15.9988 12.1726 16.0002 11.9271C16.0043 11.2486 15.8557 10.4908 15.6142 9.96499C15.3346 9.353 14.9024 8.8322 14.3587 8.45144C13.8825 8.11701 13.2523 7.89112 12.6412 7.83487C12.2449 7.79838 12.1033 7.72774 12.0272 7.52781C11.9801 7.40821 11.9926 7.20144 12.0478 7.10883C12.1001 7.02343 12.2173 6.929 12.3002 6.90404C12.388 6.87708 12.9 6.92421 13.1781 6.98236C13.9372 7.14494 14.6298 7.47926 15.2027 7.96545ZM18.7261 17.4756C18.6977 17.3882 18.6314 17.2535 18.584 17.1761C18.2856 16.7019 16.6822 15.3816 15.8817 14.9498C15.4246 14.7027 15.086 14.6204 14.8349 14.6977C14.5649 14.7776 14.4228 14.9099 13.9705 15.5014C13.7881 15.7385 13.601 15.9606 13.5513 15.9956C13.4281 16.0854 13.1866 16.1578 13.016 16.1578C12.6205 16.1553 11.9029 15.8858 11.3511 15.5313C10.9224 15.2568 10.373 14.7652 9.95139 14.2785C9.45402 13.7069 9.11539 13.2028 8.84774 12.6337C8.50198 11.9025 8.41435 11.4557 8.5588 11.1287C8.59433 11.0464 8.6417 10.959 8.66299 10.9315C8.68432 10.9066 8.90696 10.7144 9.15324 10.5048C9.6364 10.1005 9.71455 10.0081 9.80454 9.73109C9.91822 9.37916 9.88745 9.01977 9.71219 8.65789C9.57718 8.38334 9.2243 7.78435 8.96853 7.39751C8.62986 6.88838 7.78672 5.80021 7.61855 5.65291C7.3154 5.39337 6.92703 5.34842 6.49832 5.52316C6.04601 5.70786 5.19811 6.42664 4.83575 6.92831C4.50892 7.38254 4.38343 7.70448 4.36447 8.12877C4.3479 8.47817 4.37631 8.62293 4.55157 9.0697C5.92284 12.5738 7.96906 15.3716 10.7803 17.5929C12.2487 18.7534 13.7715 19.637 15.3512 20.241C16.2725 20.5929 16.6727 20.6103 17.144 20.3208C17.343 20.196 17.8356 19.6644 18.1103 19.2776C18.565 18.6336 18.7332 18.3367 18.7806 18.0995C18.8137 17.9373 18.7877 17.6553 18.7261 17.4756ZM18.1206 9.57557C18.4091 10.3663 18.5474 11.0755 18.5777 11.9401C18.5826 12.1109 18.5803 12.4239 18.5698 12.6359C18.5479 13.0423 18.527 13.123 18.4158 13.2305C18.2371 13.4069 17.8887 13.3649 17.7566 13.1523C17.6876 13.0382 17.678 12.9546 17.6913 12.4798C17.7296 11.0754 17.4597 9.97573 16.8094 8.87616C16.0323 7.55695 14.8699 6.66826 13.3584 6.23349C12.9729 6.12283 12.6481 6.05539 12.1429 5.98382C11.8138 5.93849 11.7418 5.91933 11.6605 5.86673C11.4152 5.70137 11.4119 5.28265 11.6565 5.11478C11.7827 5.02616 11.8758 5.0222 12.2872 5.07764C13.4936 5.23627 14.5701 5.61347 15.4547 6.18346C16.0887 6.59256 16.4884 6.96007 17.0031 7.60373C17.5475 8.29022 17.8358 8.79777 18.1206 9.57557Z" fill="#BCBCBC"/>
</svg>
