<svg width="24" height="26" viewBox="0 0 24 26" fill="none" xmlns="http://www.w3.org/2000/svg">
<path fill-rule="evenodd" clip-rule="evenodd" d="M0 12.6267C0 19.6003 5.37258 25.2535 12 25.2535C18.6274 25.2535 24 19.6003 24 12.6267C24 5.65318 18.6274 0 12 0C5.37258 0 0 5.65318 0 12.6267ZM19.5311 12.1435C19.5295 16.2823 16.3297 19.65 12.3955 19.6517H12.3926C11.1983 19.6512 10.0249 19.336 8.98267 18.7378L5.19999 19.7819L6.2123 15.8912C5.58786 14.7525 5.25928 13.4609 5.25982 12.1376C5.26138 7.99782 8.4624 4.6298 12.3955 4.6298C14.3043 4.63067 16.0959 5.41259 17.4431 6.83181C18.7903 8.25095 19.5318 10.1373 19.5311 12.1435Z" fill="#BCBCBC"/>
<path fill-rule="evenodd" clip-rule="evenodd" d="M6.91325 17.9981L9.15794 17.3785L9.37451 17.5138C10.2851 18.0824 11.3289 18.3832 12.3931 18.3836H12.3955C15.6644 18.3836 18.325 15.5841 18.3263 12.1431C18.3269 10.4755 17.7106 8.90766 16.5908 7.72806C15.4711 6.54847 13.982 5.89853 12.3979 5.89795C9.12647 5.89795 6.4659 8.69723 6.4646 12.138C6.46414 13.3172 6.7777 14.4656 7.37138 15.4591L7.51239 15.6952L6.91325 17.9981ZM15.7462 13.76C15.8706 13.8232 15.9545 13.8659 15.9904 13.9289C16.035 14.0071 16.035 14.3828 15.8865 14.8211C15.7378 15.2593 15.0255 15.6592 14.683 15.7131C14.3758 15.7614 13.9871 15.7816 13.56 15.6387C13.301 15.5523 12.9689 15.4369 12.5436 15.2436C10.8721 14.4841 9.74252 12.7795 9.52904 12.4573C9.51408 12.4348 9.50362 12.419 9.49779 12.4108L9.49635 12.4088C9.40199 12.2763 8.76977 11.3887 8.76977 10.4701C8.76977 9.6059 9.17319 9.15295 9.35888 8.94446C9.3716 8.93017 9.3833 8.91704 9.39378 8.90499C9.55721 8.71717 9.75038 8.67021 9.86923 8.67021C9.98808 8.67021 10.1071 8.67137 10.2109 8.67686C10.2238 8.67754 10.2371 8.67745 10.2509 8.67737C10.3548 8.67673 10.4843 8.67593 10.6121 8.9989C10.6613 9.12319 10.7332 9.30744 10.809 9.50178C10.9625 9.8948 11.132 10.3291 11.1618 10.3919C11.2064 10.4858 11.2361 10.5953 11.1767 10.7206C11.1678 10.7394 11.1595 10.7571 11.1516 10.774C11.107 10.8699 11.0741 10.9405 10.9984 11.0335C10.9686 11.0701 10.9378 11.1096 10.907 11.149C10.8457 11.2276 10.7843 11.3062 10.7309 11.3622C10.6417 11.4558 10.5488 11.5573 10.6528 11.7451C10.7568 11.9329 11.1146 12.5472 11.6446 13.0447C12.2144 13.5795 12.7096 13.8055 12.9606 13.92C13.0096 13.9424 13.0493 13.9605 13.0784 13.9759C13.2567 14.0698 13.3607 14.0541 13.4647 13.9289C13.5687 13.8037 13.9104 13.3811 14.0292 13.1933C14.1481 13.0056 14.267 13.0368 14.4304 13.0994C14.5938 13.1621 15.4704 13.6159 15.6487 13.7098C15.6835 13.7281 15.7161 13.7447 15.7462 13.76Z" fill="#BCBCBC"/>
</svg>
